<?xml version="1.0" encoding="UTF-8"?><svg id="Ebene_2" xmlns="http://www.w3.org/2000/svg" viewBox="0 0 752.19 198.12"><defs><style>.cls-1{fill:#3c464e;}</style></defs><g id="Logo"><g><g><path class="cls-1" d="M235.29,100.03c0-18.9,13.3-32.2,30.1-32.2s30.1,13.3,30.1,32.2-13.3,32.2-30.1,32.2-30.1-13.3-30.1-32.2Zm47.6,0c0-11.9-8.4-20.3-17.5-20.3s-17.5,8.4-17.5,20.3,8.4,20.3,17.5,20.3,17.5-8.4,17.5-20.3Z"/><path class="cls-1" d="M365.19,108.43c-2.94,13.44-13.16,23.8-28,23.8-16.8,0-30.1-13.3-30.1-32.2s13.3-32.2,30.1-32.2c14.84,0,25.06,10.36,28,23.8h-13.3c-2.1-7.14-6.86-11.9-14.7-11.9-9.1,0-17.5,8.4-17.5,20.3s8.4,20.3,17.5,20.3c7.84,0,12.6-4.76,14.7-11.9h13.3Z"/><path class="cls-1" d="M379.59,68.53h12.6v36.4c0,8.54,6.86,15.4,14.7,15.4,8.26,0,15.4-6.86,15.4-15.4v-36.4h12.6v63h-9.1l-2.8-6.3c-1.26,1.26-2.66,2.52-4.34,3.5-2.94,1.82-7.56,3.5-13.86,3.5-14,0-25.2-11.2-25.2-27.3v-36.4Z"/><path class="cls-1" d="M453.49,68.53h9.1l2.8,6.3c1.12-1.26,2.52-2.52,4.06-3.5,2.66-1.68,6.44-3.5,11.34-3.5,6.02,0,10.22,2.52,13.16,4.9,1.68,1.54,3.08,3.08,4.34,4.9,1.26-1.82,2.94-3.36,4.76-4.9,3.22-2.38,7.84-4.9,14.14-4.9,11.76,0,21.7,9.66,21.7,25.9v37.8h-12.6v-37.8c0-8.4-5.6-14-11.9-14s-11.9,5.6-11.9,14v37.8h-12.6v-37.8c0-8.4-5.6-14-11.9-14s-11.9,5.6-11.9,14v37.8h-12.6v-63Z"/><path class="cls-1" d="M610.69,113.33c-4.06,10.5-12.6,18.9-27.3,18.9-16.8,0-30.1-13.3-30.1-32.2s13.16-32.2,29.4-32.2,29.4,13.3,29.4,32.2c0,1.54-.28,2.94-.42,3.92l-.28,1.68h-44.8c.7,7.84,7.7,14.7,16.8,14.7,7.7,0,11.9-4.2,14-7h13.3Zm-10.5-18.2c-1.54-9.1-7.56-15.4-17.5-15.4-8.4,0-14.56,6.3-16.1,15.4h33.6Z"/><path class="cls-1" d="M671.99,125.23c-1.26,1.26-2.66,2.52-4.34,3.5-2.94,1.82-7.56,3.5-13.86,3.5-16.8,0-30.1-13.3-30.1-32.2s13.3-32.2,30.1-32.2c6.02,0,10.22,1.82,13.16,3.5,1.68,.98,3.08,2.24,4.34,3.5v-31.5h12.6v88.2h-9.1l-2.8-6.3Zm.7-25.2c0-11.9-8.54-20.3-18.2-20.3s-18.2,8.4-18.2,20.3,8.54,20.3,18.2,20.3,18.2-8.4,18.2-20.3Z"/><path class="cls-1" d="M740.29,125.23c-1.26,1.26-2.66,2.52-4.34,3.5-2.94,1.82-7.56,3.5-13.86,3.5-14,0-21.7-7.7-21.7-18.9,0-12.6,8.4-21,39.2-21v-2.1c0-6.3-4.06-10.5-11.9-10.5-8.4,0-11.9,3.36-12.6,7.7h-12.6c.7-11.2,9.66-19.6,25.2-19.6,14.7,0,24.5,9.8,24.5,22.4v41.3h-9.1l-2.8-6.3Zm-.7-21.7c-22.4,0-26.6,4.2-26.6,10.5,0,3.5,3.5,7,9.8,7,10.64,0,16.8-6.3,16.8-14.14v-3.36Z"/></g><path class="cls-1" d="M99.06,198.12C44.44,198.12,0,153.68,0,99.06S44.44,0,99.06,0s99.06,44.44,99.06,99.06-44.44,99.06-99.06,99.06Zm0-185.62C51.33,12.5,12.5,51.33,12.5,99.06s38.83,86.56,86.56,86.56,86.56-38.83,86.56-86.56S146.79,12.5,99.06,12.5Z"/><path class="cls-1" d="M98.1,166.09c-36.96,0-67.03-30.07-67.03-67.04S61.13,32.02,98.1,32.02c25.43,0,48.36,14.11,59.85,36.81l-11.15,5.64c-9.35-18.48-28.01-29.96-48.7-29.96-30.07,0-54.53,24.46-54.53,54.54s24.46,54.54,54.53,54.54c19.57,0,37.74-10.58,47.43-27.6l10.86,6.18c-11.91,20.92-34.25,33.92-58.3,33.92Z"/><path class="cls-1" d="M99.04,131.02c-18.27,0-33.14-14.87-33.14-33.14,0-12.68,7.39-24.41,18.83-29.89l5.4,11.27c-7.13,3.42-11.73,10.73-11.73,18.62,0,11.38,9.26,20.64,20.64,20.64s20.64-9.26,20.64-20.64c0-7.9-4.6-15.21-11.73-18.62l5.41-11.27c11.44,5.48,18.82,17.22,18.82,29.89,0,18.27-14.87,33.14-33.14,33.14Z"/></g></g></svg>